<svg xmlns="http://www.w3.org/2000/svg" xml:space="preserve" width="2000" height="321" data-id="lg_MP3gi6LEuYcNuqfSuJ" data-version="1"><g data-padding="20"><g transform="translate(10 5.341)scale(.96672)"><path fill="#fff" stroke="transparent" d="m783.054 234.961 17.11-53.73h19.33l-30.69 90.29h-20.88l-30.63-90.29h19.33l16.99 53.73q1.42 4.75 2.93 11.08t1.88 8.8q.68-5.68 4.63-19.88m74.9-20.38q-5.99 0-9.39 3.8-3.39 3.8-3.89 10.77h26.43q-.12-6.97-3.64-10.77t-9.51-3.8m2.66 58.17q-16.68 0-26.06-9.2-9.39-9.2-9.39-26.06 0-17.35 8.68-26.83 8.67-9.48 23.99-9.48 14.63 0 22.78 8.34 8.16 8.33 8.16 23.03v9.14h-44.53q.31 8.03 4.76 12.54 4.44 4.5 12.47 4.5 6.24 0 11.8-1.29 5.55-1.3 11.61-4.14v14.57q-4.94 2.47-10.56 3.68-5.62 1.2-13.71 1.2m107.2-46.26v45.02h-18.83v-40.33q0-7.47-2.66-11.21-2.65-3.73-8.46-3.73-7.9 0-11.42 5.28t-3.52 17.5v32.49h-18.84v-69.04h14.39l2.53 8.83h1.05q3.15-5.01 8.68-7.57t12.57-2.56q12.04 0 18.27 6.51 6.24 6.52 6.24 18.81m41.26 46.25q-12.16 0-19.11-9.45-6.95-9.44-6.95-26.18 0-16.98 7.07-26.46t19.49-9.48q13.03 0 19.88 10.13h.62q-1.42-7.72-1.42-13.77v-22.11h18.9v96.09h-14.45l-3.65-8.96h-.8q-6.42 10.19-19.58 10.19m6.61-15q7.23 0 10.59-4.2 3.37-4.2 3.68-14.27v-2.04q0-11.11-3.43-15.93t-11.15-4.82q-6.3 0-9.79 5.35-3.48 5.34-3.48 15.53t3.52 15.28q3.51 5.1 10.06 5.1m66.57-20.87q0 10.25 3.37 15.5 3.36 5.25 10.96 5.25 7.53 0 10.84-5.22 3.3-5.21 3.3-15.53 0-10.25-3.33-15.37-3.34-5.13-10.93-5.13-7.54 0-10.87 5.1-3.34 5.09-3.34 15.4m47.74 0q0 16.86-8.9 26.37-8.89 9.51-24.76 9.51-9.94 0-17.54-4.35-7.59-4.36-11.67-12.51-4.07-8.15-4.07-19.02 0-16.92 8.83-26.3 8.83-9.39 24.82-9.39 9.94 0 17.54 4.32t11.67 12.41q4.08 8.09 4.08 18.96m54.08-35.7q3.83 0 6.36.55l-1.42 17.67q-2.28-.62-5.55-.62-9.02 0-14.05 4.63-5.04 4.63-5.04 12.97v35.14h-18.83v-69.04h14.26l2.78 11.61h.93q3.21-5.81 8.68-9.36 5.46-3.55 11.88-3.55m75.91 70.34h-13.15l-3.65-9.39h-.49q-4.76 5.99-9.79 8.31-5.03 2.31-13.12 2.31-9.94 0-15.66-5.68-5.71-5.68-5.71-16.18 0-10.99 7.69-16.21t23.19-5.77l11.98-.37v-3.03q0-10.5-10.75-10.5-8.27 0-19.45 5l-6.24-12.72q11.92-6.23 26.43-6.23 13.9 0 21.31 6.05t7.41 18.4Zm-18.71-26.31v-5.68l-7.29.25q-8.21.24-12.23 2.96-4.01 2.72-4.01 8.27 0 7.97 9.14 7.97 6.55 0 10.47-3.77 3.92-3.76 3.92-10"/><rect width="601.19" height="153.68" x="301.894" y="-313.639" fill="none" rx="0" ry="0" transform="translate(421.59 465.03)"/><path fill="#ff851b" d="M994.732 6.851h-37.2q-16.033.038-16.108 16.145v69.23q.037 16.107 16.145 16.144h86.118q16.108-.037 16.145-16.145V65.032a44.64 44.64 0 0 1-31.509 12.202q-18.6 0-31.917-12.388a39.43 39.43 0 0 1-13.132-29.834q-.037-16.368 11.42-28.16"/><path fill="#ff851b" d="M1049.527 15.11a29.76 29.76 0 0 0-20.31-8.259h-1.712a29.95 29.95 0 0 0-20.46 8.259 26.3 26.3 0 0 0-8.705 19.902c0 7.7 2.976 14.433 8.817 19.865a29.76 29.76 0 0 0 21.204 8.258q12.424 0 21.204-8.258a26.04 26.04 0 0 0 8.816-19.865c0-7.7-3.013-14.471-8.816-19.902m-8.745 103.007a16.74 16.74 0 0 0-12.165-5.06 16.74 16.74 0 0 0-12.201 5.06 16.74 16.74 0 0 0-5.06 12.201 16.74 16.74 0 0 0 5.06 12.202 16.74 16.74 0 0 0 12.201 5.059 16.74 16.74 0 0 0 12.165-5.06 16.74 16.74 0 0 0 5.096-12.2q0-7.069-5.096-12.202m-56.284 0a16.74 16.74 0 0 0-12.201-5.06 16.74 16.74 0 0 0-12.165 5.06 16.74 16.74 0 0 0-5.059 12.201 16.74 16.74 0 0 0 5.06 12.202 16.74 16.74 0 0 0 12.164 5.059 16.74 16.74 0 0 0 12.201-5.06 16.74 16.74 0 0 0 5.097-12.2 16.74 16.74 0 0 0-5.097-12.202"/><path fill="#fff" d="M759.134 306.671v2.14h-11.48v-20.58h11.48v2.13h-9.08v6.63h8.53v2.11h-8.53v7.57Zm17.1 2.15h-2.34v-9.98q0-1.89-.86-2.81-.85-.93-2.68-.93-2.43 0-3.55 1.31-1.13 1.3-1.13 4.32v8.09h-2.33v-15.43h1.9l.38 2.11h.11q.72-1.14 2.01-1.76 1.3-.63 2.89-.63 2.78 0 4.19 1.35 1.41 1.34 1.41 4.3Zm15.61-.01-.31-2.07h-.13q-1.62 2.35-4.84 2.35-3.03 0-4.71-2.07t-1.68-5.88q0-3.82 1.69-5.93t4.7-2.11q3.14 0 4.82 2.28h.18l-.1-1.11-.06-1.08v-6.28h2.34v21.9Zm-4.98-1.67q2.39 0 3.47-1.31 1.07-1.3 1.07-4.2v-.49q0-3.28-1.09-4.68t-3.48-1.4q-2.06 0-3.15 1.6-1.09 1.59-1.09 4.51 0 2.95 1.09 4.46 1.08 1.51 3.18 1.51m14.17-20.23v21.9h-2.34v-21.9Zm11.47 22.18q-3.42 0-5.39-2.08-1.98-2.08-1.98-5.79 0-3.73 1.83-5.92 1.84-2.2 4.94-2.2 2.9 0 4.59 1.91t1.69 5.03v1.48h-10.63q.07 2.72 1.37 4.12 1.3 1.41 3.67 1.41 2.49 0 4.92-1.04v2.08q-1.23.54-2.34.77-1.1.23-2.67.23m-.63-14.03q-1.86 0-2.96 1.21-1.11 1.21-1.3 3.35h8.06q0-2.21-.98-3.39-.99-1.17-2.82-1.17m20.24 9.54q0 2.16-1.6 3.32-1.61 1.17-4.51 1.17-3.07 0-4.78-.97v-2.17q1.11.57 2.38.89 1.28.32 2.46.32 1.83 0 2.81-.58.99-.58.99-1.78 0-.9-.78-1.54t-3.05-1.52q-2.15-.8-3.06-1.4-.91-.59-1.35-1.35-.45-.76-.45-1.82 0-1.89 1.54-2.98 1.53-1.09 4.21-1.09 2.49 0 4.87 1.02l-.83 1.9q-2.32-.96-4.21-.96-1.66 0-2.51.52-.84.52-.84 1.43 0 .62.32 1.06.31.44 1.02.83.7.4 2.7 1.14 2.74 1 3.71 2.01.96 1.02.96 2.55m13.75 0q0 2.16-1.6 3.32-1.6 1.17-4.5 1.17-3.07 0-4.79-.97v-2.17q1.11.57 2.39.89 1.27.32 2.45.32 1.83 0 2.82-.58.98-.58.98-1.78 0-.9-.78-1.54t-3.05-1.52q-2.15-.8-3.06-1.4-.91-.59-1.35-1.35t-.44-1.82q0-1.89 1.53-2.98 1.54-1.09 4.21-1.09 2.49 0 4.87 1.02l-.83 1.9q-2.32-.96-4.21-.96-1.66 0-2.5.52-.85.52-.85 1.43 0 .62.32 1.06.31.44 1.02.83.7.4 2.7 1.14 2.75 1 3.71 2.01.96 1.02.96 2.55m20.46-14.51q-3.4 0-5.36 2.25-1.96 2.26-1.96 6.19 0 4.04 1.89 6.24 1.89 2.21 5.4 2.21 2.15 0 4.91-.78v2.1q-2.14.8-5.28.8-4.54 0-7.01-2.76t-2.47-7.84q0-3.18 1.19-5.57 1.18-2.39 3.43-3.69 2.25-1.29 5.29-1.29 3.23 0 5.65 1.18l-1.01 2.05q-2.34-1.09-4.67-1.09m21.91 18.72h-2.33v-9.98q0-1.89-.86-2.81-.86-.93-2.69-.93-2.43 0-3.55 1.32t-1.12 4.34v8.06h-2.34v-21.9h2.34v6.63q0 1.19-.12 1.98h.15q.68-1.11 1.96-1.75 1.27-.64 2.91-.64 2.82 0 4.24 1.34 1.41 1.35 1.41 4.28Zm18.12-7.73q0 3.78-1.9 5.89-1.9 2.12-5.25 2.12-2.07 0-3.67-.97-1.61-.97-2.48-2.79-.87-1.81-.87-4.25 0-3.77 1.88-5.87 1.89-2.11 5.24-2.11 3.24 0 5.14 2.16 1.91 2.15 1.91 5.82m-11.75 0q0 2.96 1.18 4.51t3.48 1.55q2.29 0 3.48-1.55 1.19-1.54 1.19-4.51 0-2.94-1.19-4.47-1.19-1.52-3.51-1.52-2.3 0-3.47 1.5-1.16 1.51-1.16 4.49m18.18-7.7v15.43h-2.33v-15.43Zm-2.53-4.18q0-.8.39-1.17.4-.38.99-.38.56 0 .97.38t.41 1.17-.41 1.18q-.41.38-.97.38-.59 0-.99-.38-.39-.39-.39-1.18m13.65 19.89q-3.35 0-5.18-2.06-1.84-2.06-1.84-5.83 0-3.88 1.86-5.99 1.87-2.11 5.32-2.11 1.11 0 2.22.24t1.75.56l-.72 1.99q-.77-.31-1.69-.52-.91-.2-1.62-.2-4.7 0-4.7 6 0 2.84 1.15 4.36 1.14 1.52 3.4 1.52 1.93 0 3.95-.83v2.07q-1.55.8-3.9.8m14.08 0q-3.42 0-5.4-2.08t-1.98-5.79q0-3.73 1.84-5.92 1.84-2.2 4.93-2.2 2.9 0 4.59 1.91t1.69 5.03v1.48h-10.63q.08 2.72 1.38 4.12 1.3 1.41 3.66 1.41 2.5 0 4.93-1.04v2.08q-1.24.54-2.34.77-1.11.23-2.67.23m-.63-14.03q-1.86 0-2.97 1.21-1.1 1.21-1.3 3.35h8.07q0-2.21-.99-3.39-.98-1.17-2.81-1.17m20.24 9.54q0 2.16-1.61 3.32-1.6 1.17-4.5 1.17-3.07 0-4.79-.97v-2.17q1.11.57 2.39.89 1.27.32 2.46.32 1.83 0 2.81-.58.99-.58.99-1.78 0-.9-.79-1.54-.78-.64-3.04-1.52-2.16-.8-3.06-1.4-.91-.59-1.36-1.35-.44-.76-.44-1.82 0-1.89 1.53-2.98 1.54-1.09 4.21-1.09 2.5 0 4.87 1.02l-.83 1.9q-2.32-.96-4.21-.96-1.66 0-2.5.52-.85.52-.85 1.43 0 .62.32 1.06t1.02.83q.71.4 2.7 1.14 2.75 1 3.71 2.01.97 1.02.97 2.55m3.69.87h2.56l.21.32q-.37 1.41-1.06 3.28-.69 1.86-1.43 3.47h-1.76q.38-1.47.84-3.62.45-2.15.64-3.45m26.63-2.12q0 2.71-1.97 4.23t-5.35 1.52q-3.66 0-5.63-.94v-2.31q1.26.54 2.76.85 1.49.3 2.95.3 2.4 0 3.61-.9 1.21-.91 1.21-2.53 0-1.07-.43-1.75t-1.44-1.26q-1-.58-3.06-1.31-2.87-1.03-4.1-2.44-1.23-1.4-1.23-3.67 0-2.38 1.78-3.79 1.79-1.4 4.73-1.4 3.07 0 5.65 1.12l-.75 2.09q-2.55-1.07-4.95-1.07-1.9 0-2.97.81-1.07.82-1.07 2.27 0 1.07.39 1.75t1.33 1.25 2.87 1.26q3.23 1.16 4.45 2.48t1.22 3.44m10.37 5.74q-3.42 0-5.4-2.08-1.97-2.08-1.97-5.79 0-3.73 1.83-5.92 1.84-2.2 4.94-2.2 2.9 0 4.59 1.91t1.69 5.03v1.48h-10.63q.07 2.72 1.37 4.12 1.3 1.41 3.67 1.41 2.49 0 4.92-1.04v2.08q-1.24.54-2.34.77-1.11.23-2.67.23m-.63-14.03q-1.86 0-2.96 1.21-1.11 1.21-1.31 3.35h8.07q0-2.21-.99-3.39-.98-1.17-2.81-1.17m21.51 13.75h-1.73l-.47-2.2h-.11q-1.16 1.45-2.3 1.97-1.15.51-2.87.51-2.29 0-3.59-1.18-1.31-1.18-1.31-3.36 0-4.68 7.48-4.9l2.62-.09v-.95q0-1.82-.78-2.69-.79-.86-2.5-.86-1.93 0-4.37 1.18l-.71-1.79q1.14-.62 2.49-.97 1.36-.35 2.73-.35 2.76 0 4.09 1.22 1.33 1.23 1.33 3.93Zm-7.01-1.65q2.18 0 3.43-1.19 1.24-1.2 1.24-3.35v-1.4l-2.34.1q-2.78.1-4.01.87-1.24.77-1.24 2.38 0 1.27.77 1.93t2.15.66m33.82 1.66h-2.33v-10.04q0-1.84-.79-2.76t-2.45-.92q-2.18 0-3.22 1.25-1.05 1.25-1.05 3.86v8.61h-2.33v-10.04q0-1.84-.79-2.76t-2.46-.92q-2.2 0-3.22 1.31-1.02 1.32-1.02 4.32v8.09h-2.34v-15.43h1.9l.38 2.11h.11q.67-1.12 1.87-1.75 1.2-.64 2.7-.64 3.61 0 4.72 2.62h.12q.69-1.21 2-1.91 1.31-.71 2.98-.71 2.62 0 3.92 1.35 1.3 1.34 1.3 4.3Zm7.15-21.91v21.9h-2.33v-21.9Zm11.48 22.18q-3.42 0-5.4-2.08t-1.98-5.79q0-3.73 1.84-5.92 1.83-2.2 4.93-2.2 2.9 0 4.59 1.91t1.69 5.03v1.48h-10.63q.07 2.72 1.37 4.12 1.31 1.41 3.67 1.41 2.49 0 4.93-1.04v2.08q-1.24.54-2.35.77-1.1.23-2.66.23m-.64-14.03q-1.86 0-2.96 1.21-1.11 1.21-1.3 3.35h8.06q0-2.21-.98-3.39-.99-1.17-2.82-1.17m20.24 9.54q0 2.16-1.6 3.32-1.61 1.17-4.51 1.17-3.06 0-4.78-.97v-2.17q1.11.57 2.38.89 1.28.32 2.46.32 1.83 0 2.82-.58.98-.58.98-1.78 0-.9-.78-1.54t-3.05-1.52q-2.15-.8-3.06-1.4-.91-.59-1.35-1.35t-.44-1.82q0-1.89 1.53-2.98 1.54-1.09 4.21-1.09 2.49 0 4.87 1.02l-.83 1.9q-2.32-.96-4.21-.96-1.66 0-2.5.52-.85.52-.85 1.43 0 .62.32 1.06.31.44 1.02.83.7.4 2.7 1.14 2.75 1 3.71 2.01.96 1.02.96 2.55m13.76 0q0 2.16-1.61 3.32-1.6 1.17-4.5 1.17-3.07 0-4.79-.97v-2.17q1.11.57 2.39.89 1.27.32 2.45.32 1.83 0 2.82-.58.98-.58.98-1.78 0-.9-.78-1.54t-3.04-1.52q-2.16-.8-3.07-1.4-.9-.59-1.35-1.35-.44-.76-.44-1.82 0-1.89 1.53-2.98 1.54-1.09 4.21-1.09 2.49 0 4.87 1.02l-.83 1.9q-2.32-.96-4.21-.96-1.66 0-2.5.52-.85.52-.85 1.43 0 .62.32 1.06t1.02.83q.7.4 2.7 1.14 2.75 1 3.71 2.01.97 1.02.97 2.55m23.11 2.07v2.14h-11.47v-20.58h11.47v2.13h-9.08v6.63h8.53v2.11h-8.53v7.57Zm2.28 2.14 5.64-7.9-5.36-7.53h2.66l4.07 5.92 4.05-5.92h2.64l-5.37 7.53 5.65 7.9h-2.65l-4.32-6.25-4.36 6.25Zm24.21.28q-1.5 0-2.75-.55-1.25-.56-2.09-1.71h-.17q.17 1.35.17 2.56v6.35h-2.34v-22.36h1.9l.33 2.11h.11q.9-1.26 2.1-1.83 1.19-.56 2.74-.56 3.07 0 4.74 2.1t1.67 5.88q0 3.8-1.7 5.91-1.7 2.1-4.71 2.1m-.34-14q-2.36 0-3.42 1.31-1.05 1.3-1.08 4.16v.52q0 3.25 1.08 4.66 1.09 1.4 3.48 1.4 2 0 3.13-1.62t1.13-4.47q0-2.88-1.13-4.42t-3.19-1.54m17.35 14q-3.43 0-5.4-2.08-1.98-2.08-1.98-5.79 0-3.73 1.84-5.92 1.83-2.2 4.93-2.2 2.9 0 4.59 1.91t1.69 5.03v1.48h-10.63q.07 2.72 1.37 4.12 1.31 1.41 3.67 1.41 2.49 0 4.93-1.04v2.08q-1.24.54-2.35.77-1.1.23-2.66.23m-.64-14.03q-1.86 0-2.96 1.21-1.11 1.21-1.3 3.35h8.06q0-2.21-.98-3.39-.99-1.17-2.82-1.17m17.33-1.95q1.03 0 1.84.17l-.32 2.17q-.96-.21-1.69-.21-1.87 0-3.2 1.52t-1.33 3.78v8.28h-2.34v-15.43h1.93l.27 2.86h.11q.86-1.51 2.07-2.32 1.21-.82 2.66-.82m7.07.27v15.43h-2.34v-15.43Zm-2.54-4.18q0-.8.4-1.17.39-.38.98-.38.56 0 .97.38t.41 1.17-.41 1.18q-.41.38-.97.38-.59 0-.98-.38-.4-.39-.4-1.18m14.01 19.89q-3.42 0-5.4-2.08t-1.98-5.79q0-3.73 1.84-5.92 1.84-2.2 4.93-2.2 2.9 0 4.59 1.91t1.69 5.03v1.48h-10.63q.07 2.72 1.38 4.12 1.3 1.41 3.66 1.41 2.49 0 4.93-1.04v2.08q-1.24.54-2.34.77-1.11.23-2.67.23m-.64-14.03q-1.85 0-2.96 1.21-1.1 1.21-1.3 3.35h8.07q0-2.21-.99-3.39-.99-1.17-2.82-1.17m23.19 13.76h-2.34v-9.98q0-1.89-.86-2.81-.86-.93-2.69-.93-2.42 0-3.54 1.31-1.13 1.3-1.13 4.32v8.09h-2.34v-15.43h1.9l.39 2.11h.11q.72-1.14 2.01-1.76 1.3-.63 2.89-.63 2.78 0 4.19 1.35 1.41 1.34 1.41 4.3Zm10.96.27q-3.35 0-5.18-2.06-1.84-2.06-1.84-5.83 0-3.88 1.86-5.99 1.87-2.11 5.32-2.11 1.11 0 2.22.24t1.75.56l-.72 1.99q-.77-.31-1.69-.52-.91-.2-1.62-.2-4.7 0-4.7 6 0 2.84 1.15 4.36t3.4 1.52q1.93 0 3.95-.83v2.07q-1.55.8-3.9.8m14.08 0q-3.42 0-5.4-2.08t-1.98-5.79q0-3.73 1.84-5.92 1.84-2.2 4.93-2.2 2.9 0 4.59 1.91t1.69 5.03v1.48h-10.62q.07 2.72 1.37 4.12 1.3 1.41 3.66 1.41 2.5 0 4.93-1.04v2.08q-1.24.54-2.34.77-1.11.23-2.67.23m-.63-14.03q-1.86 0-2.97 1.21-1.1 1.21-1.3 3.35h8.07q0-2.21-.99-3.39-.98-1.17-2.81-1.17"/><rect width="583.78" height="35.03" x="310.594" y="-254.319" fill="none" rx="0" ry="0" transform="translate(415.48 540.34)"/></g><path fill="transparent" stroke="transparent" d="M699.5 0h601v321h-601z"/></g></svg>